<svg viewBox="0 0 855.79 654.5" xmlns="http://www.w3.org/2000/svg" data-name="Layer 2" id="Layer_2">
  <defs>
    <style>
      .cls-1 {
        fill: #fff;
      }
    </style>
  </defs>
  <g data-name="Layer 1" id="Layer_1-2">
    <path d="M310.73,553.92v72.17l-47.02-72.17h-31.74v100.58h24.4v-71.69l46.65,71.69h32.12v-100.58h-24.4Z" class="cls-1"></path>
    <path d="M463.07,553.92v72.17l-46.97-72.17h-31.74v100.58h24.45v-71.69l46.65,71.69h32.07v-100.58h-24.45Z" class="cls-1"></path>
    <path d="M620.87,553.92v72.17l-47.03-72.17h-31.74v100.58h24.4v-71.69l46.65,71.69h32.12v-100.58h-24.45.05Z" class="cls-1"></path>
    <path d="M527.41,553.92h-24.45v100.58h24.45v-100.58Z" class="cls-1"></path>
    <path d="M710.2,553.92v65.37c0,6.05-2.84,16.26-14.53,16.26h-42.47v18.89h42.47c20.75,0,38.93-11.93,38.93-35.2v-65.32h-24.45.05Z" class="cls-1"></path>
    <path d="M845.82,654.5l-41.56-100.63h-26.49l-41.56,100.63h25.9l8.58-21.99c5.52.48,10.67,3,14.42,7.06,3.75,4.07,5.9,9.41,5.9,14.93,0-11.66,9.65-18.35,20.48-21.72l8.47,21.72h25.85ZM791.07,609.93c0,5.56-2.09,10.91-5.85,14.98-3.75,4.12-8.9,6.63-14.42,7.17l20.27-52,20.21,52c-5.52-.54-10.67-3.1-14.42-7.17-3.75-4.12-5.79-9.47-5.79-14.98Z" class="cls-1"></path>
    <path d="M193.15,553.92v65.53c0,9.9-8.69,17.17-24.99,17.17s-24.99-7.28-24.99-17.17v-65.53h-24.45v66.71c0,23.91,24.72,33.81,49.38,33.81s49.33-9.95,49.33-33.81v-66.71h-24.34.05Z" class="cls-1"></path>
    <path d="M68.1,593.67l-26.11.37c-1.56.16-3.11,0-4.61-.48-1.5-.48-2.84-1.28-4.02-2.3-1.18-1.02-2.09-2.3-2.74-3.74-.64-1.39-.97-2.94-.97-4.49s.32-3.1.97-4.49c.64-1.39,1.55-2.67,2.74-3.74,1.18-1.02,2.52-1.82,4.02-2.3,1.5-.48,3.06-.64,4.61-.48h59.04v-18.14h-61.39c-27.03,0-39.14,10.7-39.14,29.1s12.12,29.1,39.14,29.1h26.06c1.61-.11,3.27.16,4.77.75,1.5.59,2.95,1.44,4.13,2.57,1.18,1.12,2.15,2.46,2.79,3.96.64,1.5.96,3.1.96,4.71s-.32,3.21-.96,4.71c-.64,1.5-1.61,2.84-2.79,3.96-1.18,1.12-2.57,1.98-4.13,2.57-1.55.59-3.16.8-4.77.75H0v18.46h67.94c30.46,0,40.97-11.18,40.97-30.39s-12.6-30.39-40.81-30.39v-.05Z" class="cls-1"></path>
    <path d="M833.32,560.39c.59-1.39,1.45-2.62,2.52-3.64,1.07-1.07,2.36-1.87,3.75-2.46,2.9-1.18,6.11-1.18,9.01,0,1.39.59,2.63,1.39,3.7,2.46,1.07,1.07,1.98,2.35,2.57,3.74.59,1.39.91,2.94.91,4.44,0,1.6-.32,3.21-.96,4.65-.59,1.39-1.45,2.62-2.52,3.69-1.07,1.07-2.31,1.87-3.7,2.41-2.9,1.18-6.11,1.18-9.01,0-1.39-.54-2.68-1.39-3.75-2.41-1.07-1.07-1.93-2.3-2.52-3.69-.64-1.44-.97-3.05-.97-4.65s.32-3.1.97-4.55ZM835.2,568.9c.48,1.18,1.18,2.25,2.04,3.16.91.91,1.98,1.6,3.16,2.09,1.18.53,2.52.75,3.81.75s2.57-.27,3.75-.75c1.18-.48,2.25-1.23,3.16-2.09.86-.91,1.55-1.98,2.04-3.16.48-1.28.75-2.62.7-3.96,0-1.34-.21-2.62-.7-3.85-.48-1.18-1.18-2.25-2.04-3.16-.91-.91-1.98-1.6-3.16-2.09-1.18-.53-2.47-.75-3.75-.75s-2.63.27-3.81.75c-1.18.48-2.25,1.18-3.16,2.09-.91.91-1.61,1.98-2.04,3.16-.48,1.23-.75,2.57-.75,3.85s.22,2.67.75,3.96ZM844.63,558.25c1.29-.11,2.52.27,3.59.96.38.38.7.8.91,1.34.22.48.27,1.02.27,1.6,0,.48,0,1.02-.21,1.5-.16.48-.48.91-.86,1.23-.75.59-1.61.91-2.57,1.02l3.86,5.99h-2.25l-3.7-5.83h-2.25v5.83h-2.09v-13.53h5.26l.05-.11ZM843.72,564.25h1.34c.38,0,.75-.11,1.13-.27.32-.16.59-.38.8-.7.22-.37.32-.8.32-1.23,0-.38-.11-.75-.27-1.07-.16-.27-.43-.48-.7-.64-.32-.16-.64-.21-.96-.27h-3.86v4.17h2.2Z" class="cls-1"></path>
    <path d="M626.93,340.52c-125.58-59.92-289.02-6.26-348.7,64.89,87.99-57.4,75.5-27.07-30.89,114,143.49-121.92,226.07-115.66,363.71-1.66-83.43-100.68-125.58-213.08,15.87-177.29v.05Z" class="cls-1"></path>
    <path d="M415.34,313.5c114,0,181.83-89.93,181.83-153.7-.05-16.32-2.57-32.47-7.4-48.04-30.51,43.44-136.62,75.27-192.23,75.27-25.04,0-59.2-9.2-59.2-34.99,0-37.88,99.25-80.3,187.24-80.3,24.51,0,40.86,4.33,50.67,8.24C551.81,35.84,505.27,0,433.09,0c-92.5,0-164.62,60.35-185.26,128.61-4.61-7.97-19.25-29.9-47.19-44.03-11.26,18.3-32.12,49.11-32.12,49.11,30.88-2.89,48.79,7.49,62.15,17.49-45.47-9.58-84.24,11.24-98.45,27.07,6.65,11.66,27.94,41.62,27.94,41.62,20.43-22.1,53.25-40.5,81.66-47.77,2.41,89.13,85.79,141.39,173.46,141.39h.05Z" class="cls-1"></path>
    <path d="M450.63,155.09c9.49-4.92,12.28-18.35,6.22-29.96-6.06-11.61-18.66-17.01-28.15-12.09-9.49,4.92-12.28,18.35-6.22,29.96,6.06,11.61,18.66,17.01,28.15,12.09Z" class="cls-1"></path>
    <path d="M549.28,126.58c8.74-.96,14.91-10.38,13.73-21.03-1.13-10.7-9.17-18.56-17.91-17.65-8.74.96-14.91,10.38-13.73,21.02,1.18,10.7,9.17,18.56,17.91,17.65Z" class="cls-1"></path>
  </g>
</svg>