<svg viewBox="0 0 116.96 42.59" xmlns="http://www.w3.org/2000/svg" data-name="Layer 2" id="Layer_2">
  <defs>
    <style>
      .cls-1 {
        fill: #fff;
      }
    </style>
  </defs>
  <g data-name="Layer 2" id="Layer_2-2">
    <g id="ARTWORK">
      <g>
        <g>
          <path d="M62.83,19.24c1.16-.61,1.5-2.27.76-3.71s-2.28-2.11-3.44-1.5-1.5,2.27-.76,3.71,2.28,2.11,3.44,1.5Z" class="cls-1"></path>
          <path d="M74.87,15.71c1.07-.12,1.82-1.29,1.68-2.61-.14-1.33-1.12-2.31-2.19-2.19-1.07.12-1.82,1.29-1.68,2.61.14,1.33,1.12,2.31,2.19,2.19Z" class="cls-1"></path>
          <path d="M29.68,25.17c2.29-1.76,4.89-3.05,7.66-3.82.03,1.29.21,2.57.53,3.82h41.76c.7-1.7,1.07-3.51,1.1-5.35,0-2.02-.31-4.03-.91-5.96-3.72,5.39-16.69,9.34-23.48,9.34-3.06,0-7.23-1.14-7.23-4.33,0-4.7,12.13-9.97,22.87-9.97,2.99,0,4.99.54,6.19,1.03-2.98-5.49-8.66-9.93-17.48-9.93-11.3,0-20.1,7.48-22.63,15.96-1.38-2.33-3.37-4.23-5.76-5.46-1.37,2.27-3.92,6.09-3.92,6.09,3.77-.36,5.96.93,7.59,2.17-5.55-1.19-10.29,1.39-12.02,3.36.4.71,1.23,1.96,1.97,3.06h3.76Z" class="cls-1"></path>
        </g>
        <g>
          <path d="M42.48,28.62v10.02l-6.43-10.02h-4.34v13.96h3.34v-9.96l6.38,9.96h4.39v-13.96h-3.34Z" class="cls-1"></path>
          <path d="M63.3,28.62v10.02l-6.42-10.02h-4.34v13.96h3.34v-9.96l6.38,9.96h4.39v-13.96h-3.35Z" class="cls-1"></path>
          <path d="M84.87,28.62v10.02l-6.43-10.02h-4.34v13.96h3.34v-9.96l6.38,9.96h4.39v-13.96h-3.34Z" class="cls-1"></path>
          <path d="M72.1,28.62h-3.34v13.96h3.34v-13.96Z" class="cls-1"></path>
          <path d="M97.08,28.62v9.08c0,.84-.39,2.26-1.99,2.26h-5.81v2.62h5.81c2.84,0,5.33-1.65,5.33-4.89v-9.07h-3.34Z" class="cls-1"></path>
          <path d="M115.62,42.58l-5.68-13.97h-3.62l-5.68,13.97h3.54l1.18-3.06c.76.07,1.46.42,1.97.98.51.57.8,1.3.81,2.07,0-1.62,1.32-2.55,2.8-3.02l1.16,3.02h3.53-.01ZM108.14,36.4c0,.77-.29,1.51-.8,2.08-.51.57-1.22.92-1.97,1l2.77-7.22,2.77,7.22c-.76-.07-1.46-.43-1.97-1s-.8-1.31-.8-2.08Z" class="cls-1"></path>
          <path d="M26.4,28.62v9.1c0,1.37-1.18,2.38-3.42,2.38s-3.41-1.01-3.41-2.38v-9.1h-3.34v9.27c0,3.32,3.38,4.7,6.75,4.7s6.74-1.38,6.74-4.7v-9.27h-3.33,0Z" class="cls-1"></path>
          <path d="M9.3,34.13l-3.57.05c-.21.02-.43,0-.63-.07-.2-.07-.39-.18-.55-.32s-.28-.32-.37-.52-.13-.41-.13-.63.04-.43.13-.63c.09-.2.21-.37.37-.52.16-.14.34-.25.55-.32.2-.07.42-.09.63-.07h8.07v-2.52H5.41C1.72,28.58.06,30.06.06,32.62s1.66,4.04,5.35,4.04h3.56c.22,0,.44.02.65.1.21.08.4.2.56.35.16.16.29.34.38.55.09.21.13.43.13.66s-.05.45-.13.66c-.09.21-.22.39-.38.55s-.35.28-.56.35c-.21.08-.43.11-.65.1H0v2.56h9.28c4.16,0,5.6-1.55,5.6-4.22s-1.72-4.22-5.58-4.22v.03Z" class="cls-1"></path>
          <path d="M113.91,29.51c.08-.19.2-.36.34-.51.15-.15.32-.26.51-.34.39-.16.84-.16,1.23,0,.19.08.36.19.5.34.15.15.27.33.35.52.08.2.12.41.12.62s-.04.44-.13.65c-.08.19-.2.37-.34.51-.14.15-.32.26-.5.34-.4.16-.84.16-1.23,0-.19-.08-.37-.19-.51-.34-.15-.15-.26-.32-.34-.51-.09-.2-.13-.42-.13-.65s.04-.43.13-.63ZM114.17,30.7c.06.16.16.31.28.44.12.12.27.22.43.29.16.07.34.11.52.1.18,0,.35-.03.51-.1s.31-.17.43-.29c.12-.13.21-.28.28-.44.07-.18.1-.36.1-.55,0-.18-.03-.37-.1-.54-.06-.16-.16-.31-.28-.44-.12-.12-.27-.22-.43-.29-.16-.07-.34-.11-.51-.11-.18,0-.36.03-.52.11-.16.06-.31.16-.43.29-.12.13-.22.27-.28.44-.07.17-.1.35-.1.54s.03.37.1.55ZM115.46,29.21c.17-.01.35.03.49.14.05.05.1.11.13.18s.04.14.03.22c0,.07,0,.14-.03.2-.02.07-.06.12-.11.17-.1.08-.22.13-.35.14l.53.83h-.31l-.5-.81h-.31v.81h-.29v-1.88h.72ZM115.33,30.05h.19s.11-.02.16-.04c.04-.02.08-.05.11-.1.03-.05.05-.11.04-.17,0-.05-.01-.1-.04-.15-.02-.04-.06-.07-.09-.09-.04-.02-.08-.03-.13-.04h-.53v.58h.3,0Z" class="cls-1"></path>
        </g>
      </g>
    </g>
  </g>
</svg>